<?xml version="1.0" encoding="utf-8"?>
<!-- Generator: Adobe Illustrator 23.0.4, SVG Export Plug-In . SVG Version: 6.00 Build 0)  -->
<svg version="1.1" id="Layer_1" xmlns="http://www.w3.org/2000/svg" xmlns:xlink="http://www.w3.org/1999/xlink" x="0px" y="0px"
	 viewBox="0 0 34.3 52.4" style="enable-background:new 0 0 34.3 52.4;" xml:space="preserve">
<style type="text/css">
	.st0{fill:#343434;}
</style>
<g>
	<path class="st0" d="M16.6,49.9c-1.9-3.8-3.8-7.7-5.8-11.5C8.5,33.6,6,28.9,3.6,24.1c-4.5-9,0.5-19.3,10.3-21.4
		c8.5-1.8,16.8,4.5,17.6,13.1c0.3,3.1-0.4,6-1.8,8.7c-4.2,8.2-8.3,16.3-12.5,24.5c-0.1,0.3-0.2,0.6-0.3,0.9
		C16.8,49.9,16.7,49.9,16.6,49.9z M16.7,8.3c-4.8,0-8.9,4.1-8.9,8.8c0,5,4.1,9.1,9,9c4.9-0.1,9-4.2,8.9-8.9
		C25.6,12.3,21.6,8.3,16.7,8.3z"/>
</g>
</svg>
