<?xml version="1.0" encoding="utf-8"?>
<!-- Generator: Adobe Illustrator 23.0.4, SVG Export Plug-In . SVG Version: 6.00 Build 0)  -->
<svg version="1.1" id="Layer_1" xmlns="http://www.w3.org/2000/svg" xmlns:xlink="http://www.w3.org/1999/xlink" x="0px" y="0px"
	 viewBox="0 0 241.8 144.7" style="enable-background:new 0 0 241.8 144.7;" xml:space="preserve">
<style type="text/css">
	.st0{fill:#1E1E1C;}
</style>
<g>
	<g>
		<path class="st0" d="M10.8,130.5c0.1,0,0.3,0,0.5,0.1c0.3,0,0.6,0.1,0.9,0.2c0.3,0.1,0.7,0.3,1,0.4c0.3,0.2,0.7,0.4,0.9,0.8
			c0.3,0.3,0.5,0.7,0.7,1.2s0.3,1,0.3,1.7c0,0,0,0.2,0,0.4s-0.1,0.5-0.2,0.8s-0.3,0.7-0.5,1.1s-0.5,0.7-0.9,1
			c-0.4,0.3-0.9,0.6-1.5,0.8c-0.6,0.2-1.3,0.3-2.2,0.3c-0.8,0-1.6-0.2-2.3-0.5c-0.7-0.3-1.3-0.8-1.9-1.4l2-1.6c0,0,0,0.1,0.1,0.2
			c0.1,0.1,0.2,0.2,0.4,0.3c0.2,0.1,0.4,0.2,0.7,0.3c0.3,0.1,0.7,0.1,1.1,0.1c0.8,0,1.4-0.2,1.8-0.6c0.4-0.4,0.6-0.9,0.6-1.4
			c0-0.4-0.1-0.7-0.2-0.9c-0.2-0.2-0.4-0.4-0.6-0.6c-0.3-0.2-0.6-0.3-0.9-0.4c-0.4-0.1-0.7-0.2-1.1-0.2c-0.1,0-0.3,0-0.5-0.1
			c-0.2-0.1-0.5-0.1-0.8-0.3c-0.3-0.1-0.6-0.3-0.9-0.5c-0.3-0.2-0.6-0.4-0.9-0.7c-0.3-0.3-0.5-0.7-0.6-1.1c-0.2-0.4-0.3-0.9-0.3-1.5
			c0,0,0-0.1,0-0.4c0-0.2,0.1-0.5,0.2-0.8c0.1-0.3,0.3-0.6,0.5-1c0.2-0.4,0.5-0.7,0.9-1c0.4-0.3,0.9-0.5,1.5-0.7
			c0.6-0.2,1.3-0.3,2.2-0.3c0.8,0,1.6,0.2,2.3,0.5c0.7,0.3,1.4,0.8,1.9,1.4l-2,1.6c-0.1-0.3-0.4-0.4-0.6-0.6
			c-0.3-0.1-0.5-0.2-0.8-0.3c-0.3-0.1-0.7-0.1-1-0.1c-0.8,0-1.4,0.1-1.8,0.4s-0.6,0.7-0.6,1.3c0,0.4,0.1,0.7,0.2,0.9
			s0.3,0.4,0.5,0.5c0.2,0.1,0.5,0.2,0.8,0.3C10,130.4,10.4,130.4,10.8,130.5z"/>
		<path class="st0" d="M29.9,124.4v9.4c0,0.1,0,0.4,0,0.7s-0.1,0.7-0.2,1.1c-0.1,0.4-0.3,0.8-0.5,1.3c-0.2,0.4-0.6,0.9-1,1.2
			c-0.4,0.4-1,0.7-1.6,0.9c-0.7,0.2-1.5,0.4-2.4,0.4c-0.9,0-1.7-0.1-2.3-0.4c-0.6-0.2-1.2-0.5-1.6-0.9c-0.4-0.4-0.7-0.8-0.9-1.2
			c-0.2-0.4-0.4-0.9-0.5-1.3c-0.1-0.4-0.2-0.8-0.2-1.1s0-0.6,0-0.7v-9.4H21v9.4c0,0.1,0,0.4,0,0.8c0,0.4,0.1,0.7,0.3,1.1
			c0.2,0.4,0.5,0.7,0.9,1c0.4,0.3,1,0.4,1.8,0.4c0.8,0,1.5-0.1,1.9-0.4c0.4-0.3,0.8-0.6,1-1c0.2-0.4,0.3-0.7,0.4-1.1
			c0-0.4,0-0.6,0-0.8v-9.4H29.9z"/>
		<path class="st0" d="M45.6,139.4h-2.8l-3.3-6.1h-3.1v6.1H34v-15h7.2c0.8,0,1.5,0.2,2.1,0.6c0.3,0.1,0.5,0.3,0.8,0.5
			c0.3,0.2,0.5,0.5,0.7,0.8c0.2,0.3,0.3,0.7,0.5,1.1c0.1,0.4,0.2,0.9,0.2,1.5c0,0.9-0.1,1.6-0.4,2.2c-0.3,0.6-0.6,1-1,1.4
			c-0.4,0.3-0.7,0.5-1,0.7c-0.3,0.1-0.5,0.2-0.6,0.2L45.6,139.4z M36.5,130.8h4.7c0.3,0,0.6-0.1,0.8-0.2c0.2-0.1,0.4-0.3,0.6-0.6
			c0.2-0.3,0.3-0.6,0.3-1.1c0-0.5-0.1-0.8-0.3-1.1c-0.2-0.3-0.4-0.5-0.6-0.6c-0.2-0.1-0.5-0.2-0.8-0.2h-4.7V130.8z"/>
		<path class="st0" d="M60.6,139.4h-2.8l-3.3-6.1h-3.1v6.1H49v-15h7.2c0.8,0,1.5,0.2,2.1,0.6c0.3,0.1,0.5,0.3,0.8,0.5
			c0.3,0.2,0.5,0.5,0.7,0.8c0.2,0.3,0.3,0.7,0.5,1.1c0.1,0.4,0.2,0.9,0.2,1.5c0,0.9-0.1,1.6-0.4,2.2c-0.3,0.6-0.6,1-1,1.4
			c-0.4,0.3-0.7,0.5-1,0.7s-0.5,0.2-0.6,0.2L60.6,139.4z M51.5,130.8h4.7c0.3,0,0.6-0.1,0.8-0.2c0.2-0.1,0.4-0.3,0.6-0.6
			c0.2-0.3,0.3-0.6,0.3-1.1c0-0.5-0.1-0.8-0.3-1.1c-0.2-0.3-0.4-0.5-0.6-0.6c-0.2-0.1-0.5-0.2-0.8-0.2h-4.7V130.8z"/>
		<path class="st0" d="M66.5,126.9v3.7h6.4v2.5h-6.4v3.8H74v2.5H64v-15h10v2.5H66.5z"/>
		<path class="st0" d="M84.7,132.5v6.9h-2.5v-6.9l-6.1-8h3.1l4.5,5.6l4.2-5.6h3.3L84.7,132.5z"/>
		<path class="st0" d="M110.6,124.4v15h-2.5v-6.1h-6.4v6.1h-2.5v-15h2.5v6.4h6.4v-6.4H110.6z"/>
		<path class="st0" d="M120.9,124.4l7.5,15h-2.8l-1.7-3h-6.1l-1.4,3h-3L120.9,124.4z M119.2,133.8h3.6l-1.9-3.9L119.2,133.8z"/>
		<path class="st0" d="M141.3,124.4h2.5v15l-10-9.3v9.3h-2.5v-15l10,9.3V124.4z"/>
		<path class="st0" d="M147.9,124.4h5c1,0,2,0.2,2.9,0.6c0.9,0.4,1.7,0.9,2.4,1.6c0.7,0.7,1.2,1.5,1.6,2.4c0.4,0.9,0.6,1.8,0.6,2.8
			c0,1-0.2,2-0.6,2.9c-0.4,0.9-1,1.7-1.7,2.4c-0.7,0.7-1.5,1.2-2.4,1.6c-0.9,0.4-1.8,0.6-2.8,0.6h-5V124.4z M153.2,136.9
			c0.7,0,1.3-0.1,1.8-0.4c0.6-0.3,1.1-0.7,1.5-1.1c0.4-0.5,0.8-1,1-1.6c0.2-0.6,0.4-1.2,0.4-1.9c0-0.6-0.1-1.2-0.4-1.9
			s-0.6-1.1-1-1.6c-0.4-0.5-0.9-0.8-1.5-1.1c-0.6-0.3-1.2-0.4-1.8-0.4h-2.8v10H153.2z"/>
		<path class="st0" d="M180.8,137.1c-0.7,0.7-1.5,1.2-2.4,1.6c-0.9,0.4-1.9,0.6-2.8,0.6c-1,0-1.9-0.2-2.8-0.6
			c-0.9-0.4-1.7-0.9-2.4-1.6c-0.7-0.7-1.2-1.5-1.7-2.4c-0.4-0.9-0.6-1.9-0.6-2.9c0-1,0.2-1.9,0.6-2.8c0.4-0.9,0.9-1.7,1.6-2.4
			c0.7-0.7,1.5-1.2,2.4-1.7c0.9-0.4,1.9-0.6,2.9-0.6c1,0,1.9,0.2,2.8,0.6c0.9,0.4,1.7,0.9,2.4,1.6l-1.7,1.7c-0.5-0.4-1.1-0.7-1.7-1
			c-0.6-0.3-1.2-0.4-1.9-0.4c-0.7,0-1.3,0.1-1.9,0.4c-0.6,0.3-1.1,0.6-1.6,1.1c-0.4,0.5-0.8,1-1.1,1.6c-0.3,0.6-0.4,1.3-0.4,1.9
			c0,0.7,0.1,1.3,0.4,1.9s0.6,1.1,1.1,1.6s1,0.8,1.6,1.1c0.6,0.3,1.3,0.4,1.9,0.4c0.7,0,1.3-0.1,1.9-0.4c0.6-0.3,1-0.6,1.5-1
			L180.8,137.1z"/>
		<path class="st0" d="M193.5,136.9v2.5h-10v-15h2.5l0,12.5H193.5z"/>
		<path class="st0" d="M196.4,124.4h2.5v15h-2.5V124.4z"/>
		<path class="st0" d="M213.1,124.4h2.5v15l-10-9.3v9.3H203v-15l10,9.3V124.4z"/>
		<path class="st0" d="M219.7,124.4h2.5v15h-2.5V124.4z"/>
		<path class="st0" d="M238.5,137.1c-0.7,0.7-1.5,1.2-2.4,1.6c-0.9,0.4-1.9,0.6-2.8,0.6c-1,0-1.9-0.2-2.8-0.6
			c-0.9-0.4-1.7-0.9-2.4-1.6c-0.7-0.7-1.2-1.5-1.7-2.4c-0.4-0.9-0.6-1.9-0.6-2.9c0-1,0.2-1.9,0.6-2.8c0.4-0.9,0.9-1.7,1.6-2.4
			c0.7-0.7,1.5-1.2,2.4-1.7c0.9-0.4,1.9-0.6,2.9-0.6c1,0,1.9,0.2,2.8,0.6c0.9,0.4,1.7,0.9,2.4,1.6l-1.7,1.7c-0.5-0.4-1.1-0.7-1.7-1
			c-0.6-0.3-1.2-0.4-1.9-0.4c-0.7,0-1.3,0.1-1.9,0.4c-0.6,0.3-1.1,0.6-1.6,1.1c-0.4,0.5-0.8,1-1.1,1.6c-0.3,0.6-0.4,1.3-0.4,1.9
			c0,0.7,0.1,1.3,0.4,1.9c0.3,0.6,0.6,1.1,1.1,1.6c0.4,0.4,1,0.8,1.6,1.1c0.6,0.3,1.3,0.4,1.9,0.4c0.7,0,1.3-0.1,1.9-0.4
			c0.6-0.3,1-0.6,1.5-1L238.5,137.1z"/>
	</g>
	<g>
		<g>
			<path class="st0" d="M97.8,48.9c0.7,0.1,2,0.3,3.9,0.6c1.8,0.3,3.9,0.8,6.2,1.6c2.3,0.8,4.7,1.9,7.1,3.2c2.4,1.3,4.6,3.1,6.6,5.4
				c2,2.3,3.6,5.1,4.9,8.4c1.3,3.3,2,7.2,2,11.8c0,0.2-0.1,1.1-0.2,2.7c-0.1,1.6-0.6,3.6-1.3,6c-0.8,2.3-1.9,4.8-3.4,7.4
				c-1.5,2.6-3.7,5.1-6.5,7.4c-2.8,2.3-6.3,4.2-10.6,5.7c-4.3,1.5-9.5,2.2-15.7,2.2c-5.7,0-11.1-1.2-16.2-3.6
				c-5.1-2.4-9.5-5.7-13.1-9.9l14.3-11.1c0,0.1,0.4,0.5,1.1,1.3c0.7,0.8,1.7,1.5,3.1,2.4c1.4,0.8,3.1,1.6,5.2,2.3
				c2.1,0.7,4.6,1.1,7.5,1.1c5.3,0,9.5-1.4,12.5-4.1c3-2.8,4.5-6,4.5-9.8c0-2.7-0.6-4.9-1.7-6.7c-1.1-1.7-2.6-3.1-4.6-4.2
				c-1.9-1.1-4.1-1.9-6.6-2.5c-2.5-0.6-5.1-1.2-7.9-1.8c-0.8-0.1-2-0.3-3.7-0.7c-1.7-0.4-3.7-1-5.8-1.8c-2.1-0.8-4.3-1.9-6.6-3.3
				c-2.3-1.4-4.4-3.1-6.2-5.2c-1.8-2.1-3.4-4.6-4.6-7.6c-1.2-3-1.8-6.4-1.8-10.5c0-0.2,0.1-1.1,0.2-2.6c0.1-1.5,0.6-3.4,1.3-5.6
				c0.7-2.2,1.8-4.6,3.4-7.1c1.5-2.5,3.7-4.8,6.5-7c2.8-2.1,6.3-3.9,10.6-5.3c4.3-1.4,9.5-2.1,15.7-2.1c5.7,0,11.1,1.2,16.3,3.7
				c5.2,2.4,9.6,5.8,13.2,10L113,30.6c-1-1.8-2.5-3.2-4.4-4.1c-1.9-1-3.7-1.7-5.6-2.2c-2.2-0.5-4.6-0.7-7.2-0.8
				c-5.3,0-9.5,1.1-12.5,3.2c-3,2.1-4.5,5.1-4.5,8.9c0,2.7,0.5,4.8,1.4,6.4c0.9,1.5,2.2,2.7,3.9,3.6c1.6,0.8,3.6,1.5,6,1.9
				C92.4,47.8,95,48.3,97.8,48.9z"/>
			<path class="st0" d="M165.9,6v44.7h-47c2.4,1.5,4.6,3.4,6.5,5.7c2.3,2.7,4.3,6,5.8,9.8c0.3,0.7,0.5,1.4,0.8,2.1h34v43h17.6V6
				H165.9z"/>
		</g>
	</g>
</g>
</svg>
